STARTFONT 2.1
COMMENT Font converted from OTF to BDF.
FONT -FreeType-Helvetica-Medium-R-Normal--27-200-96-96-P-116-ISO10646-1
SIZE 20 96 96
FONTBOUNDINGBOX 27 32 -1 -6
STARTPROPERTIES 19
POINT_SIZE 200
PIXEL_SIZE 27
RESOLUTION_X 96
RESOLUTION_Y 96
FONT_ASCENT 20
FONT_DESCENT 6
AVERAGE_WIDTH 116
SPACING "P"
FOUNDRY "FreeType"
FAMILY_NAME "Helvetica"
CHARSET_REGISTRY "ISO10646"
CHARSET_ENCODING "1"
WEIGHT_NAME "Medium"
SLANT "R"
SETWIDTH_NAME "Normal"
COPYRIGHT "© 1990-2006 Apple Computer Inc. © 1981 Linotype AG © 1990-91 Type Solutions Inc."
_TTF_PSNAME "Helvetica"
_OTF_FONTFILE "helvetica.ttf"
_GBDFED_INFO "Edited with gbdfed 1.6."
ENDPROPERTIES
CHARS 234
STARTCHAR char0
ENCODING 0
SWIDTH 0 0
DWIDTH 0 0
BBX 0 0 0 0
BITMAP
ENDCHAR
STARTCHAR char8
ENCODING 8
SWIDTH 0 0
DWIDTH 0 0
BBX 0 0 0 0
BITMAP
ENDCHAR
STARTCHAR char9
ENCODING 9
SWIDTH 26 0
DWIDTH 8 0
BBX 0 0 0 0
BITMAP
ENDCHAR
STARTCHAR char10
ENCODING 10
SWIDTH 26 0
DWIDTH 8 0
BBX 0 0 0 0
BITMAP
ENDCHAR
STARTCHAR char13
ENCODING 13
SWIDTH 26 0
DWIDTH 8 0
BBX 0 0 0 0
BITMAP
ENDCHAR
STARTCHAR char29
ENCODING 29
SWIDTH 0 0
DWIDTH 0 0
BBX 0 0 0 0
BITMAP
ENDCHAR
STARTCHAR char32
ENCODING 32
SWIDTH 26 0
DWIDTH 8 0
BBX 0 0 0 0
BITMAP
ENDCHAR
STARTCHAR char33
ENCODING 33
SWIDTH 26 0
DWIDTH 8 0
BBX 3 20 3 0
BITMAP
E0
E0
E0
E0
E0
E0
E0
E0
E0
E0
E0
C0
40
40
40
40
00
00
E0
E0
ENDCHAR
STARTCHAR char34
ENCODING 34
SWIDTH 33 0
DWIDTH 10 0
BBX 7 8 1 12
BITMAP
C6
C6
C6
C6
C6
C6
C6
C6
ENDCHAR
STARTCHAR char35
ENCODING 35
SWIDTH 16 0
DWIDTH 15 0
BBX 15 20 0 0
BITMAP
0198
0318
0318
0318
0630
0630
3FFE
3FFE
0460
0C60
0C60
0CC0
FFF8
FFF8
18C0
18C0
3180
3180
3180
3300
ENDCHAR
STARTCHAR char36
ENCODING 36
SWIDTH 16 0
DWIDTH 15 0
BBX 13 22 1 -2
BITMAP
0200
1FC0
3FE0
7270
E230
E238
E200
E200
7200
3F00
1FE0
03F0
0238
0238
C218
C218
E238
7270
7FE0
1F80
0200
0200
ENDCHAR
STARTCHAR char37
ENCODING 37
SWIDTH 12 0
DWIDTH 24 0
BBX 22 19 1 0
BITMAP
000180
3E0100
7F0200
E38600
C18400
C18C00
C18800
E39800
7F1000
3E3000
0021F0
0063F8
00C71C
00860C
01860C
01060C
03071C
0203F8
0601E0
ENDCHAR
STARTCHAR char38
ENCODING 38
SWIDTH 26 0
DWIDTH 18 0
BBX 16 19 1 0
BITMAP
0780
1FE0
18E0
1860
1860
1860
1CE0
0FC0
0F00
1F80
7BCC
71CC
E0EC
E07C
E038
E03C
70EC
3FCE
1F87
ENDCHAR
STARTCHAR char39
ENCODING 39
SWIDTH 16 0
DWIDTH 5 0
BBX 2 8 2 12
BITMAP
C0
C0
C0
C0
C0
C0
C0
C0
ENDCHAR
STARTCHAR char40
ENCODING 40
SWIDTH 30 0
DWIDTH 9 0
BBX 6 25 2 -5
BITMAP
0C
18
18
30
30
60
60
60
E0
E0
C0
C0
C0
C0
C0
E0
E0
60
60
60
30
30
18
18
0C
ENDCHAR
STARTCHAR char41
ENCODING 41
SWIDTH 30 0
DWIDTH 9 0
BBX 6 25 1 -5
BITMAP
C0
40
60
30
30
38
18
18
1C
1C
1C
0C
0C
0C
1C
1C
1C
18
18
18
30
30
60
60
C0
ENDCHAR
STARTCHAR char42
ENCODING 42
SWIDTH 2 0
DWIDTH 11 0
BBX 8 8 1 12
BITMAP
18
18
DB
FF
18
3C
66
22
ENDCHAR
STARTCHAR char43
ENCODING 43
SWIDTH 19 0
DWIDTH 16 0
BBX 14 14 1 0
BITMAP
0300
0300
0300
0300
0300
0300
FFFC
FFFC
0300
0300
0300
0300
0300
0300
ENDCHAR
STARTCHAR char44
ENCODING 44
SWIDTH 26 0
DWIDTH 8 0
BBX 3 6 2 -4
BITMAP
E0
E0
20
20
60
C0
ENDCHAR
STARTCHAR char45
ENCODING 45
SWIDTH 30 0
DWIDTH 9 0
BBX 7 2 1 6
BITMAP
FE
FE
ENDCHAR
STARTCHAR char46
ENCODING 46
SWIDTH 26 0
DWIDTH 8 0
BBX 3 2 2 0
BITMAP
E0
E0
ENDCHAR
STARTCHAR char47
ENCODING 47
SWIDTH 26 0
DWIDTH 8 0
BBX 8 20 0 0
BITMAP
03
03
06
06
06
0C
0C
0C
0C
18
18
18
30
30
30
60
60
60
C0
C0
ENDCHAR
STARTCHAR char48
ENCODING 48
SWIDTH 16 0
DWIDTH 15 0
BBX 13 19 1 0
BITMAP
0F80
3FC0
38E0
7070
6030
E038
E038
E038
C038
C038
C038
C038
E038
E030
E030
7070
78E0
3FC0
0F80
ENDCHAR
STARTCHAR char49
ENCODING 49
SWIDTH 16 0
DWIDTH 15 0
BBX 7 18 3 0
BITMAP
06
0E
1E
FE
FE
0E
0E
0E
0E
0E
0E
0E
0E
0E
0E
0E
0E
0E
ENDCHAR
STARTCHAR char50
ENCODING 50
SWIDTH 16 0
DWIDTH 15 0
BBX 13 19 1 0
BITMAP
0FC0
3FE0
7070
6030
E038
E038
0038
0038
0070
00E0
03C0
0F80
1E00
3800
7000
6000
E000
FFF8
FFF8
ENDCHAR
STARTCHAR char51
ENCODING 51
SWIDTH 16 0
DWIDTH 15 0
BBX 13 19 1 0
BITMAP
1F80
3FE0
70F0
6070
E030
E030
0070
00E0
07C0
07E0
0070
0038
0038
C038
C038
E030
70F0
7FE0
1F80
ENDCHAR
STARTCHAR char52
ENCODING 52
SWIDTH 16 0
DWIDTH 15 0
BBX 13 19 1 0
BITMAP
00C0
01C0
03C0
03C0
06C0
0CC0
0CC0
18C0
30C0
70C0
60C0
C0C0
FFF8
FFF8
00C0
00C0
00C0
00C0
00C0
ENDCHAR
STARTCHAR char53
ENCODING 53
SWIDTH 16 0
DWIDTH 15 0
BBX 13 18 1 0
BITMAP
3FF0
3FF0
3000
7000
6000
6000
6F80
7FE0
70F0
6030
0038
0038
0038
C038
E070
70F0
7FE0
1F80
ENDCHAR
STARTCHAR char54
ENCODING 54
SWIDTH 16 0
DWIDTH 15 0
BBX 13 19 1 0
BITMAP
0FC0
1FE0
3870
7030
6038
6000
E000
EFC0
FFE0
F870
E038
E038
E038
E038
E038
7030
7870
3FE0
0F80
ENDCHAR
STARTCHAR char55
ENCODING 55
SWIDTH 16 0
DWIDTH 15 0
BBX 13 18 1 0
BITMAP
FFF8
FFF8
0030
0070
00E0
00C0
01C0
0180
0300
0700
0700
0600
0E00
0C00
1C00
1C00
1C00
1800
ENDCHAR
STARTCHAR char56
ENCODING 56
SWIDTH 16 0
DWIDTH 15 0
BBX 13 19 1 0
BITMAP
0F80
3FE0
70F0
6070
6030
6030
6070
70E0
3FC0
3FE0
70F0
E038
E038
C038
E038
E030
7070
3FE0
1F80
ENDCHAR
STARTCHAR char57
ENCODING 57
SWIDTH 16 0
DWIDTH 15 0
BBX 13 19 1 0
BITMAP
0F80
3FC0
70E0
6070
E030
E030
C038
C038
E038
E078
70F8
3FF8
1F30
0030
E070
E060
70E0
3FC0
1F00
ENDCHAR
STARTCHAR char58
ENCODING 58
SWIDTH 26 0
DWIDTH 8 0
BBX 3 13 3 0
BITMAP
E0
E0
00
00
00
00
00
00
00
00
00
E0
E0
ENDCHAR
STARTCHAR char59
ENCODING 59
SWIDTH 26 0
DWIDTH 8 0
BBX 3 17 3 -4
BITMAP
E0
E0
00
00
00
00
00
00
00
00
00
E0
E0
60
60
40
80
ENDCHAR
STARTCHAR char60
ENCODING 60
SWIDTH 19 0
DWIDTH 16 0
BBX 16 14 0 0
BITMAP
0003
001F
007E
03F0
0F80
7E00
F000
F800
3F00
0FC0
01F8
007E
000F
0003
ENDCHAR
STARTCHAR char61
ENCODING 61
SWIDTH 19 0
DWIDTH 16 0
BBX 14 8 1 3
BITMAP
FFFC
FFFC
0000
0000
0000
0000
FFFC
FFFC
ENDCHAR
STARTCHAR char62
ENCODING 62
SWIDTH 19 0
DWIDTH 16 0
BBX 16 14 0 0
BITMAP
C000
F800
7F00
0FC0
01F8
007E
000F
001F
007C
03F0
1F80
7E00
F000
C000
ENDCHAR
STARTCHAR char63
ENCODING 63
SWIDTH 16 0
DWIDTH 15 0
BBX 12 20 2 0
BITMAP
1F80
3FC0
70E0
E060
E070
C070
0070
0060
00E0
01C0
0380
0700
0600
0600
0600
0600
0000
0000
0E00
0E00
ENDCHAR
STARTCHAR char64
ENCODING 64
SWIDTH 22 0
DWIDTH 27 0
BBX 21 20 3 0
BITMAP
00FE00
07FFC0
0F01E0
1C0070
300038
707998
60C718
C18708
C30708
C30618
C30618
C30618
C30E30
C31E70
63F7E0
71E3C0
380000
1E00E0
0FFF80
01FE00
ENDCHAR
STARTCHAR char65
ENCODING 65
SWIDTH 26 0
DWIDTH 18 0
BBX 17 20 1 0
BITMAP
03C000
03C000
03E000
07E000
076000
067000
0E7000
0E3000
0C3800
1C3800
181800
381C00
3FFC00
3FFC00
700E00
700E00
600600
E00700
E00700
C00380
ENDCHAR
STARTCHAR char66
ENCODING 66
SWIDTH 26 0
DWIDTH 18 0
BBX 15 20 2 0
BITMAP
FFE0
FFF8
E038
E01C
E01C
E01C
E01C
E01C
E038
FFF0
FFF8
E01C
E00E
E00E
E00E
E00E
E00E
E01C
FFF8
FFE0
ENDCHAR
STARTCHAR char67
ENCODING 67
SWIDTH 33 0
DWIDTH 20 0
BBX 17 20 1 0
BITMAP
03F800
0FFE00
1E0F00
380700
700380
700380
600000
E00000
E00000
E00000
E00000
E00000
E00000
600180
700380
700380
380700
1E0E00
0FFC00
03F000
ENDCHAR
STARTCHAR char68
ENCODING 68
SWIDTH 33 0
DWIDTH 20 0
BBX 16 20 2 0
BITMAP
FFE0
FFF8
E03C
E00E
E00E
E007
E007
E007
E007
E007
E007
E007
E007
E007
E006
E00E
E01C
E03C
FFF8
FFE0
ENDCHAR
STARTCHAR char69
ENCODING 69
SWIDTH 26 0
DWIDTH 18 0
BBX 15 20 2 0
BITMAP
FFFC
FFFC
E000
E000
E000
E000
E000
E000
E000
FFFC
FFFC
E000
E000
E000
E000
E000
E000
E000
FFFE
FFFE
ENDCHAR
STARTCHAR char70
ENCODING 70
SWIDTH 23 0
DWIDTH 17 0
BBX 14 20 2 0
BITMAP
FFFC
FFFC
E000
E000
E000
E000
E000
E000
E000
FFF0
FFF0
E000
E000
E000
E000
E000
E000
E000
E000
E000
ENDCHAR
STARTCHAR char71
ENCODING 71
SWIDTH 2 0
DWIDTH 21 0
BBX 18 20 1 0
BITMAP
03F800
0FFE00
1E0F00
380380
300180
7001C0
600000
E00000
E00000
E07FC0
E07FC0
E000C0
E001C0
6001C0
7001C0
7003C0
3803C0
1E0EC0
0FFCC0
03F0C0
ENDCHAR
STARTCHAR char72
ENCODING 72
SWIDTH 33 0
DWIDTH 20 0
BBX 16 20 2 0
BITMAP
E007
E007
E007
E007
E007
E007
E007
E007
E007
FFFF
FFFF
E007
E007
E007
E007
E007
E007
E007
E007
E007
ENDCHAR
STARTCHAR char73
ENCODING 73
SWIDTH 26 0
DWIDTH 8 0
BBX 2 20 3 0
BITMAP
C0
C0
C0
C0
C0
C0
C0
C0
C0
C0
C0
C0
C0
C0
C0
C0
C0
C0
C0
C0
ENDCHAR
STARTCHAR char74
ENCODING 74
SWIDTH 13 0
DWIDTH 14 0
BBX 12 20 0 0
BITMAP
0070
0070
0070
0070
0070
0070
0070
0070
0070
0070
0070
0070
0070
0070
E070
E060
6060
70E0
7FC0
1F80
ENDCHAR
STARTCHAR char75
ENCODING 75
SWIDTH 26 0
DWIDTH 18 0
BBX 16 20 2 0
BITMAP
E00E
E01C
E038
E070
E0E0
E1C0
E380
E700
EF00
FF80
FB80
F1C0
E1E0
E0E0
E070
E078
E038
E01C
E01E
E00F
ENDCHAR
STARTCHAR char76
ENCODING 76
SWIDTH 16 0
DWIDTH 15 0
BBX 12 20 2 0
BITMAP
E000
E000
E000
E000
E000
E000
E000
E000
E000
E000
E000
E000
E000
E000
E000
E000
E000
E000
FFF0
FFF0
ENDCHAR
STARTCHAR char77
ENCODING 77
SWIDTH 5 0
DWIDTH 22 0
BBX 19 20 2 0
BITMAP
F001E0
F003E0
F803E0
D803E0
D807E0
DC06E0
CC06E0
CC0EE0
EE0CE0
E60CE0
E61CE0
E718E0
E318E0
E338E0
E3B0E0
E1B0E0
E1F0E0
E1E0E0
E1E0E0
E0E0E0
ENDCHAR
STARTCHAR char78
ENCODING 78
SWIDTH 33 0
DWIDTH 20 0
BBX 15 20 2 0
BITMAP
E006
F006
F806
F806
FC06
EC06
EE06
E706
E706
E386
E1C6
E1C6
E0E6
E0E6
E076
E03E
E03E
E01E
E00E
E00E
ENDCHAR
STARTCHAR char79
ENCODING 79
SWIDTH 2 0
DWIDTH 21 0
BBX 19 20 1 0
BITMAP
03F800
0FFE00
1E0F00
380380
7001C0
7001C0
6000E0
E000E0
E000E0
E000E0
E000E0
E000E0
E000E0
E000C0
7001C0
7001C0
380380
1E0F00
0FFE00
03F800
ENDCHAR
STARTCHAR char80
ENCODING 80
SWIDTH 26 0
DWIDTH 18 0
BBX 15 20 2 0
BITMAP
FFF0
FFF8
E01C
E00C
E00E
E00E
E00E
E00C
E01C
FFF8
FFF0
E000
E000
E000
E000
E000
E000
E000
E000
E000
ENDCHAR
STARTCHAR char81
ENCODING 81
SWIDTH 2 0
DWIDTH 21 0
BBX 19 21 1 -1
BITMAP
03F800
0FFE00
1E0F00
380380
7001C0
7001C0
6000E0
E000E0
E000E0
E000E0
E000E0
E000E0
E000E0
E000C0
7011C0
7019C0
381F80
1E0F00
0FFF80
03F9E0
000040
ENDCHAR
STARTCHAR char82
ENCODING 82
SWIDTH 33 0
DWIDTH 20 0
BBX 16 20 2 0
BITMAP
FFF8
FFFC
E00E
E007
E007
E007
E007
E006
E01E
FFFC
FFFC
E01E
E00E
E006
E006
E006
E006
E006
E007
E007
ENDCHAR
STARTCHAR char83
ENCODING 83
SWIDTH 26 0
DWIDTH 18 0
BBX 16 20 1 0
BITMAP
07E0
1FF8
383C
700E
700E
6006
7000
7000
3E00
1FE0
07FC
007E
000E
0007
E007
6007
7006
381E
1FFC
07F0
ENDCHAR
STARTCHAR char84
ENCODING 84
SWIDTH 23 0
DWIDTH 17 0
BBX 16 20 0 0
BITMAP
FFFF
FFFF
01C0
01C0
01C0
01C0
01C0
01C0
01C0
01C0
01C0
01C0
01C0
01C0
01C0
01C0
01C0
01C0
01C0
01C0
ENDCHAR
STARTCHAR char85
ENCODING 85
SWIDTH 33 0
DWIDTH 20 0
BBX 16 20 2 0
BITMAP
E007
E007
E007
E007
E007
E007
E007
E007
E007
E007
E007
E006
E006
E006
6006
700E
700E
383C
1FF8
07E0
ENDCHAR
STARTCHAR char86
ENCODING 86
SWIDTH 26 0
DWIDTH 18 0
BBX 16 20 1 0
BITMAP
E007
E007
6007
700E
700E
300E
380C
381C
181C
1C18
1C38
0C38
0E30
0E70
0660
0760
07E0
03C0
03C0
01C0
ENDCHAR
STARTCHAR char87
ENCODING 87
SWIDTH 15 0
DWIDTH 25 0
BBX 24 20 1 0
BITMAP
C03807
E03C07
E03C06
E07C0E
607C0E
706E0E
70660C
70E60C
30E61C
30C71C
38C318
39C318
1983B8
1983B8
1F81B0
1F81B0
0F01F0
0F00F0
0F00E0
0E00E0
ENDCHAR
STARTCHAR char88
ENCODING 88
SWIDTH 26 0
DWIDTH 18 0
BBX 16 20 1 0
BITMAP
F007
700E
380E
3C1C
1C38
0E38
0E70
07E0
03E0
03C0
03C0
07E0
0770
0E70
1C38
1C3C
381C
700E
700F
E007
ENDCHAR
STARTCHAR char89
ENCODING 89
SWIDTH 26 0
DWIDTH 18 0
BBX 17 20 1 0
BITMAP
E00780
E00700
700E00
380E00
381C00
1C1800
0C3800
0E7000
077000
07E000
03C000
01C000
01C000
01C000
01C000
01C000
01C000
01C000
01C000
01C000
ENDCHAR
STARTCHAR char90
ENCODING 90
SWIDTH 23 0
DWIDTH 17 0
BBX 15 20 1 0
BITMAP
FFFE
FFFE
001C
003C
0038
0070
00F0
01E0
01C0
0380
0780
0F00
0E00
1C00
3C00
3800
7000
E000
FFFE
FFFE
ENDCHAR
STARTCHAR char91
ENCODING 91
SWIDTH 26 0
DWIDTH 8 0
BBX 5 25 2 -5
BITMAP
F8
F8
C0
C0
C0
C0
C0
C0
C0
C0
C0
C0
C0
C0
C0
C0
C0
C0
C0
C0
C0
C0
C0
F8
F8
ENDCHAR
STARTCHAR char92
ENCODING 92
SWIDTH 26 0
DWIDTH 8 0
BBX 9 20 -1 0
BITMAP
C000
6000
6000
6000
3000
3000
1800
1800
1800
0C00
0C00
0C00
0600
0600
0300
0300
0300
0180
0180
0180
ENDCHAR
STARTCHAR char93
ENCODING 93
SWIDTH 26 0
DWIDTH 8 0
BBX 5 25 1 -5
BITMAP
F8
F8
38
38
38
38
38
38
38
38
38
38
38
38
38
38
38
38
38
38
38
38
38
F8
F8
ENDCHAR
STARTCHAR char94
ENCODING 94
SWIDTH 9 0
DWIDTH 13 0
BBX 11 11 2 9
BITMAP
0C00
0E00
1E00
1B00
3B00
3300
3180
6180
60C0
E0C0
C0E0
ENDCHAR
STARTCHAR char95
ENCODING 95
SWIDTH 16 0
DWIDTH 15 0
BBX 15 1 0 -3
BITMAP
FFFE
ENDCHAR
STARTCHAR char96
ENCODING 96
SWIDTH 30 0
DWIDTH 9 0
BBX 5 4 1 16
BITMAP
E0
60
30
18
ENDCHAR
STARTCHAR char97
ENCODING 97
SWIDTH 16 0
DWIDTH 15 0
BBX 13 14 1 0
BITMAP
1F80
3FE0
7070
6070
0030
00F0
3FF0
7E70
E070
E070
E070
E0F0
7FB8
3E38
ENDCHAR
STARTCHAR char98
ENCODING 98
SWIDTH 16 0
DWIDTH 15 0
BBX 12 20 2 0
BITMAP
C000
C000
C000
C000
C000
C000
CF80
FFC0
F0E0
E060
C070
C070
C030
C030
C070
C070
E060
F0E0
FFC0
CF00
ENDCHAR
STARTCHAR char99
ENCODING 99
SWIDTH 13 0
DWIDTH 14 0
BBX 12 14 1 0
BITMAP
0F80
3FC0
70E0
6070
E070
C000
C000
C000
C000
E070
E060
70E0
3FC0
1F80
ENDCHAR
STARTCHAR char100
ENCODING 100
SWIDTH 16 0
DWIDTH 15 0
BBX 12 20 1 0
BITMAP
0030
0030
0030
0030
0030
0030
1F30
3FF0
70F0
E070
E030
C030
C030
C030
C030
E030
E070
70F0
3FB0
1F30
ENDCHAR
STARTCHAR char101
ENCODING 101
SWIDTH 16 0
DWIDTH 15 0
BBX 13 14 1 0
BITMAP
0F80
3FE0
7870
6030
E038
E038
FFF8
FFF8
E000
E000
E038
7070
3FE0
0F80
ENDCHAR
STARTCHAR char102
ENCODING 102
SWIDTH 26 0
DWIDTH 8 0
BBX 7 20 0 0
BITMAP
0E
1E
38
38
38
38
FE
FE
38
38
38
38
38
38
38
38
38
38
38
38
ENDCHAR
STARTCHAR char103
ENCODING 103
SWIDTH 16 0
DWIDTH 15 0
BBX 12 20 1 -6
BITMAP
1F30
3FB0
70F0
E070
E030
C030
C030
C030
C030
E030
E070
70F0
3FB0
1F30
0030
0070
E070
70E0
7FC0
1F80
ENDCHAR
STARTCHAR char104
ENCODING 104
SWIDTH 16 0
DWIDTH 15 0
BBX 11 20 2 0
BITMAP
C000
C000
C000
C000
C000
C000
CF80
DFC0
F0E0
E060
C060
C060
C060
C060
C060
C060
C060
C060
C060
C060
ENDCHAR
STARTCHAR char105
ENCODING 105
SWIDTH 20 0
DWIDTH 6 0
BBX 2 20 2 0
BITMAP
C0
C0
00
00
00
C0
C0
C0
C0
C0
C0
C0
C0
C0
C0
C0
C0
C0
C0
C0
ENDCHAR
STARTCHAR char106
ENCODING 106
SWIDTH 20 0
DWIDTH 6 0
BBX 5 26 -1 -6
BITMAP
18
18
00
00
00
00
00
18
18
18
18
18
18
18
18
18
18
18
18
18
18
18
18
18
F8
F0
ENDCHAR
STARTCHAR char107
ENCODING 107
SWIDTH 13 0
DWIDTH 14 0
BBX 11 20 2 0
BITMAP
C000
C000
C000
C000
C000
C000
C0E0
C1C0
C780
CE00
DC00
FC00
FE00
EE00
C700
C300
C380
C1C0
C1C0
C0E0
ENDCHAR
STARTCHAR char108
ENCODING 108
SWIDTH 20 0
DWIDTH 6 0
BBX 2 20 2 0
BITMAP
C0
C0
C0
C0
C0
C0
C0
C0
C0
C0
C0
C0
C0
C0
C0
C0
C0
C0
C0
C0
ENDCHAR
STARTCHAR char109
ENCODING 109
SWIDTH 5 0
DWIDTH 22 0
BBX 19 14 2 0
BITMAP
CF8F80
DFDFC0
F1F1C0
E0E0E0
C0E0E0
C0C0E0
C0C0E0
C0C0E0
C0C0E0
C0C0E0
C0C0E0
C0C0E0
C0C0E0
C0C0E0
ENDCHAR
STARTCHAR char110
ENCODING 110
SWIDTH 16 0
DWIDTH 15 0
BBX 11 14 2 0
BITMAP
CF80
DFC0
F0E0
E060
C060
C060
C060
C060
C060
C060
C060
C060
C060
C060
ENDCHAR
STARTCHAR char111
ENCODING 111
SWIDTH 16 0
DWIDTH 15 0
BBX 13 14 1 0
BITMAP
0F80
3FE0
7070
6030
E038
C038
C038
C038
C038
E038
E070
70F0
3FE0
1F80
ENDCHAR
STARTCHAR char112
ENCODING 112
SWIDTH 16 0
DWIDTH 15 0
BBX 12 20 2 -6
BITMAP
CF80
FFC0
F0E0
E060
C070
C070
C030
C030
C070
C070
E060
F1E0
FFC0
CF80
C000
C000
C000
C000
C000
C000
ENDCHAR
STARTCHAR char113
ENCODING 113
SWIDTH 16 0
DWIDTH 15 0
BBX 12 20 1 -6
BITMAP
1F30
3FB0
70F0
6070
E030
C030
C030
C030
C030
E030
E070
70F0
3FB0
1F30
0030
0030
0030
0030
0030
0030
ENDCHAR
STARTCHAR char114
ENCODING 114
SWIDTH 30 0
DWIDTH 9 0
BBX 7 14 2 0
BITMAP
CE
DE
F0
E0
C0
C0
C0
C0
C0
C0
C0
C0
C0
C0
ENDCHAR
STARTCHAR char115
ENCODING 115
SWIDTH 13 0
DWIDTH 14 0
BBX 12 14 1 0
BITMAP
1F00
7FC0
60E0
E060
E000
7000
7F00
0FE0
00E0
0070
C060
E0E0
7FC0
3F80
ENDCHAR
STARTCHAR char116
ENCODING 116
SWIDTH 26 0
DWIDTH 8 0
BBX 7 17 0 0
BITMAP
38
38
38
FE
FE
38
38
38
38
38
38
38
38
38
38
3E
1E
ENDCHAR
STARTCHAR char117
ENCODING 117
SWIDTH 16 0
DWIDTH 15 0
BBX 11 14 2 0
BITMAP
C060
C060
C060
C060
C060
C060
C060
C060
C060
C0E0
C0E0
E1E0
7F60
3E60
ENDCHAR
STARTCHAR char118
ENCODING 118
SWIDTH 13 0
DWIDTH 14 0
BBX 13 14 0 0
BITMAP
E038
6038
7030
7070
3070
3860
18E0
18C0
1CC0
0DC0
0D80
0F80
0700
0700
ENDCHAR
STARTCHAR char119
ENCODING 119
SWIDTH 33 0
DWIDTH 20 0
BBX 19 14 0 0
BITMAP
E0E0E0
60E0E0
60F0C0
71B0C0
31B1C0
31B180
31B980
3B1980
1B1B80
1B1B00
1B0F00
0E0F00
0E0E00
0E0E00
ENDCHAR
STARTCHAR char120
ENCODING 120
SWIDTH 13 0
DWIDTH 14 0
BBX 13 14 0 0
BITMAP
7038
7070
38E0
1CC0
1DC0
0F80
0700
0780
0F80
1DC0
18E0
38E0
7070
E038
ENDCHAR
STARTCHAR char121
ENCODING 121
SWIDTH 13 0
DWIDTH 14 0
BBX 13 20 0 -6
BITMAP
E038
6038
7030
3070
3070
3860
18E0
18E0
1CC0
0DC0
0D80
0F80
0780
0700
0700
0600
0600
0E00
3C00
3800
ENDCHAR
STARTCHAR char122
ENCODING 122
SWIDTH 13 0
DWIDTH 14 0
BBX 12 14 1 0
BITMAP
FFE0
FFE0
00E0
01C0
0380
0700
0E00
0E00
1C00
3800
7000
E000
FFF0
FFF0
ENDCHAR
STARTCHAR char123
ENCODING 123
SWIDTH 30 0
DWIDTH 9 0
BBX 9 26 -1 -6
BITMAP
0180
0780
0700
0E00
0C00
0C00
0C00
0C00
0C00
0C00
0C00
1800
F000
F000
1800
0C00
0C00
0C00
0C00
0C00
0C00
0C00
0E00
0700
0380
0180
ENDCHAR
STARTCHAR char124
ENCODING 124
SWIDTH 23 0
DWIDTH 7 0
BBX 2 20 2 0
BITMAP
C0
C0
C0
C0
C0
C0
C0
C0
C0
C0
C0
C0
C0
C0
C0
C0
C0
C0
C0
C0
ENDCHAR
STARTCHAR char125
ENCODING 125
SWIDTH 30 0
DWIDTH 9 0
BBX 9 26 1 -6
BITMAP
C000
F000
7000
3800
1800
1800
1800
1800
1800
1800
1800
0C00
0780
0780
0C00
1800
1800
1800
1800
1800
1800
1800
3800
7000
E000
C000
ENDCHAR
STARTCHAR char126
ENCODING 126
SWIDTH 19 0
DWIDTH 16 0
BBX 16 6 0 4
BITMAP
0003
1E03
7FC6
61FE
407C
C000
ENDCHAR
STARTCHAR char160
ENCODING 160
SWIDTH 26 0
DWIDTH 8 0
BBX 0 0 0 0
BITMAP
ENDCHAR
STARTCHAR char161
ENCODING 161
SWIDTH 30 0
DWIDTH 9 0
BBX 3 19 3 -5
BITMAP
E0
E0
00
00
40
40
40
C0
C0
C0
E0
E0
E0
E0
E0
E0
E0
E0
E0
ENDCHAR
STARTCHAR char162
ENCODING 162
SWIDTH 16 0
DWIDTH 15 0
BBX 13 20 1 -3
BITMAP
0040
0040
0080
0FC0
1FE0
39F0
7130
6138
E100
E200
E200
E200
6438
6430
7470
3FE0
1F80
0800
0800
1000
ENDCHAR
STARTCHAR char163
ENCODING 163
SWIDTH 16 0
DWIDTH 15 0
BBX 13 19 1 0
BITMAP
0FC0
3FE0
7870
6038
E038
E038
6000
7000
3000
FF80
1800
1800
1800
1800
3800
3000
7F08
FFF8
41F0
ENDCHAR
STARTCHAR char164
ENCODING 164
SWIDTH 16 0
DWIDTH 15 0
BBX 13 13 1 3
BITMAP
0010
CFB8
7FF0
30E0
6030
6030
6030
6030
6030
30E0
7FF0
CFB8
0010
ENDCHAR
STARTCHAR char165
ENCODING 165
SWIDTH 16 0
DWIDTH 15 0
BBX 15 19 0 0
BITMAP
E00E
E01C
701C
3038
3838
1870
7C7C
7CFC
0EC0
07C0
0780
7FFC
7FFC
0380
0380
0380
0380
0380
0380
ENDCHAR
STARTCHAR char166
ENCODING 166
SWIDTH 23 0
DWIDTH 7 0
BBX 2 20 2 0
BITMAP
C0
C0
C0
C0
C0
C0
C0
C0
00
00
00
00
C0
C0
C0
C0
C0
C0
C0
C0
ENDCHAR
STARTCHAR char167
ENCODING 167
SWIDTH 16 0
DWIDTH 15 0
BBX 13 26 1 -6
BITMAP
0F80
1FC0
38E0
3060
3060
3060
3000
3C00
1E00
7F80
63C0
C0F0
C070
E038
7038
7838
1E30
0FE0
03C0
01E0
00E0
7060
7060
38E0
3FC0
0F80
ENDCHAR
STARTCHAR char168
ENCODING 168
SWIDTH 30 0
DWIDTH 9 0
BBX 7 2 1 16
BITMAP
EE
EE
ENDCHAR
STARTCHAR char169
ENCODING 169
SWIDTH 33 0
DWIDTH 20 0
BBX 20 20 0 0
BITMAP
01F800
060600
180100
100080
20F8C0
63FC60
430620
460020
C60030
C60030
C60030
C60030
C60020
430620
61FC60
20F8C0
100080
180100
060600
01F800
ENDCHAR
STARTCHAR char170
ENCODING 170
SWIDTH 33 0
DWIDTH 10 0
BBX 8 9 1 11
BITMAP
7C
C6
02
0E
7E
C2
C6
C6
7B
ENDCHAR
STARTCHAR char171
ENCODING 171
SWIDTH 16 0
DWIDTH 15 0
BBX 9 9 3 3
BITMAP
1000
3180
7380
C700
8600
C700
E380
3180
1080
ENDCHAR
STARTCHAR char172
ENCODING 172
SWIDTH 19 0
DWIDTH 16 0
BBX 14 7 1 4
BITMAP
FFFC
FFFC
000C
000C
000C
000C
000C
ENDCHAR
STARTCHAR char173
ENCODING 173
SWIDTH 30 0
DWIDTH 9 0
BBX 7 2 1 6
BITMAP
FE
FE
ENDCHAR
STARTCHAR char174
ENCODING 174
SWIDTH 33 0
DWIDTH 20 0
BBX 20 20 0 0
BITMAP
01F800
060600
080100
100080
2000C0
63F860
430C20
430C20
C30C20
C30C30
C3F030
C30C30
430C20
430C20
630C60
200040
100080
180100
060600
01F800
ENDCHAR
STARTCHAR char175
ENCODING 175
SWIDTH 30 0
DWIDTH 9 0
BBX 9 2 0 17
BITMAP
FF80
FF80
ENDCHAR
STARTCHAR char176
ENCODING 176
SWIDTH 2 0
DWIDTH 11 0
BBX 8 7 1 11
BITMAP
3E
63
41
C1
41
63
3C
ENDCHAR
STARTCHAR char177
ENCODING 177
SWIDTH 16 0
DWIDTH 15 0
BBX 14 13 1 0
BITMAP
0300
0300
0300
0300
FFFC
FFFC
0300
0300
0300
0300
0000
FFFC
FFFC
ENDCHAR
STARTCHAR char178
ENCODING 178
SWIDTH 30 0
DWIDTH 9 0
BBX 9 11 0 8
BITMAP
3E00
7F00
6300
E380
0300
0700
1E00
3000
6000
FF80
FF80
ENDCHAR
STARTCHAR char179
ENCODING 179
SWIDTH 30 0
DWIDTH 9 0
BBX 9 12 0 7
BITMAP
3C00
7F00
E300
0300
0300
1E00
1F00
0380
0180
C300
FF00
3E00
ENDCHAR
STARTCHAR char180
ENCODING 180
SWIDTH 30 0
DWIDTH 9 0
BBX 5 4 2 16
BITMAP
38
70
60
C0
ENDCHAR
STARTCHAR char181
ENCODING 181
SWIDTH 19 0
DWIDTH 16 0
BBX 15 19 -1 -6
BITMAP
0206
0406
0C06
0C0E
0C0E
180C
180C
181C
181C
3818
3838
3878
3FD8
6738
6000
6000
6000
E000
8000
ENDCHAR
STARTCHAR char182
ENCODING 182
SWIDTH 16 0
DWIDTH 15 0
BBX 14 24 0 -4
BITMAP
1FFC
3FFC
7E30
FE30
FE30
FE30
FE30
FE30
FE30
7E30
7E30
3E30
0630
0630
0630
0630
0630
0630
0630
0630
0630
0630
0630
0630
ENDCHAR
STARTCHAR char183
ENCODING 183
SWIDTH 26 0
DWIDTH 8 0
BBX 3 3 2 8
BITMAP
E0
E0
E0
ENDCHAR
STARTCHAR char184
ENCODING 184
SWIDTH 30 0
DWIDTH 9 0
BBX 5 6 2 -6
BITMAP
20
40
78
18
18
F0
ENDCHAR
STARTCHAR char185
ENCODING 185
SWIDTH 30 0
DWIDTH 9 0
BBX 5 11 1 7
BITMAP
18
38
F8
18
18
18
18
18
18
18
18
ENDCHAR
STARTCHAR char186
ENCODING 186
SWIDTH 33 0
DWIDTH 10 0
BBX 8 9 1 11
BITMAP
3C
7E
C7
C3
C3
C3
C7
7E
3C
ENDCHAR
STARTCHAR char187
ENCODING 187
SWIDTH 16 0
DWIDTH 15 0
BBX 9 9 3 3
BITMAP
0400
8600
E700
7380
3080
7180
E780
C600
8400
ENDCHAR
STARTCHAR char188
ENCODING 188
SWIDTH 9 0
DWIDTH 23 0
BBX 19 19 2 -1
BITMAP
180300
380200
F80600
180C00
180C00
181800
181000
1830C0
1861C0
1842C0
00C4C0
018CC0
0198C0
031FE0
021FE0
0600C0
0C00C0
0800C0
180000
ENDCHAR
STARTCHAR char189
ENCODING 189
SWIDTH 9 0
DWIDTH 23 0
BBX 20 18 1 0
BITMAP
180600
180600
F80C00
180800
181800
183000
1833C0
1867E0
18CC70
18CC30
018030
010070
0301E0
060380
060600
0C0C00
080FF0
180FF0
ENDCHAR
STARTCHAR char190
ENCODING 190
SWIDTH 9 0
DWIDTH 23 0
BBX 21 20 1 -1
BITMAP
3C00C0
7E0180
C30180
030300
030200
1E0600
1F0C00
030C00
039800
C31060
FF30E0
3E6160
006260
00C660
008C60
018FF8
030FF8
030060
060060
040000
ENDCHAR
STARTCHAR char191
ENCODING 191
SWIDTH 23 0
DWIDTH 17 0
BBX 12 19 2 -5
BITMAP
0700
0700
0000
0000
0700
0700
0700
0600
0E00
1C00
3800
7000
6000
E030
E030
6070
70E0
3FE0
0F80
ENDCHAR
STARTCHAR char192
ENCODING 192
SWIDTH 26 0
DWIDTH 18 0
BBX 17 25 1 0
BITMAP
0E0000
070000
038000
018000
000000
03C000
03C000
03E000
07E000
076000
067000
0E7000
0E3000
0C3800
1C3800
181800
381C00
3FFC00
3FFC00
700E00
700E00
600600
E00700
E00700
C00380
ENDCHAR
STARTCHAR char193
ENCODING 193
SWIDTH 26 0
DWIDTH 18 0
BBX 17 25 1 0
BITMAP
00E000
01C000
018000
030000
000000
03C000
03C000
03E000
07E000
076000
067000
0E7000
0E3000
0C3800
1C3800
181800
381C00
3FFC00
3FFC00
700E00
700E00
600600
E00700
E00700
C00380
ENDCHAR
STARTCHAR char194
ENCODING 194
SWIDTH 26 0
DWIDTH 18 0
BBX 17 25 1 0
BITMAP
01C000
03C000
076000
063000
000000
03C000
03C000
03E000
07E000
076000
067000
0E7000
0E3000
0C3800
1C3800
181800
381C00
3FFC00
3FFC00
700E00
700E00
600600
E00700
E00700
C00380
ENDCHAR
STARTCHAR char195
ENCODING 195
SWIDTH 26 0
DWIDTH 18 0
BBX 17 25 1 0
BITMAP
001800
079800
0FF000
08E000
000000
03C000
03C000
03E000
07E000
076000
067000
0E7000
0E3000
0C3800
1C3800
181800
381C00
3FFC00
3FFC00
700E00
700E00
600600
E00700
E00700
C00380
ENDCHAR
STARTCHAR char196
ENCODING 196
SWIDTH 26 0
DWIDTH 18 0
BBX 17 23 1 0
BITMAP
066000
066000
000000
03C000
03C000
03E000
07E000
076000
067000
0E7000
0E3000
0C3800
1C3800
181800
381C00
3FFC00
3FFC00
700E00
700E00
600600
E00700
E00700
C00380
ENDCHAR
STARTCHAR char197
ENCODING 197
SWIDTH 26 0
DWIDTH 18 0
BBX 17 26 1 0
BITMAP
01C000
026000
022000
022000
026000
01C000
03C000
03C000
03E000
07E000
076000
067000
0E7000
0E3000
0C3800
1C3800
181800
381C00
3FFC00
3FFC00
700E00
700E00
600600
E00700
E00700
C00380
ENDCHAR
STARTCHAR char198
ENCODING 198
SWIDTH 22 0
DWIDTH 27 0
BBX 26 20 0 0
BITMAP
00FFFF80
01FFFF80
01CE0000
018E0000
038E0000
030E0000
030E0000
070E0000
060E0000
0E0FFF80
0E0FFF80
0C0E0000
1FFE0000
1FFE0000
380E0000
380E0000
300E0000
700E0000
700FFFC0
E00FFFC0
ENDCHAR
STARTCHAR char199
ENCODING 199
SWIDTH 33 0
DWIDTH 20 0
BBX 17 26 1 -6
BITMAP
03F800
0FFE00
1E0F00
380700
700380
700380
600000
E00000
E00000
E00000
E00000
E00000
E00000
600180
700380
700380
380700
1E0E00
0FFC00
07F000
008000
01C000
01E000
006000
006000
03C000
ENDCHAR
STARTCHAR char200
ENCODING 200
SWIDTH 26 0
DWIDTH 18 0
BBX 15 25 2 0
BITMAP
0E00
0600
0300
0180
0000
FFFC
FFFC
E000
E000
E000
E000
E000
E000
E000
FFFC
FFFC
E000
E000
E000
E000
E000
E000
E000
FFFE
FFFE
ENDCHAR
STARTCHAR char201
ENCODING 201
SWIDTH 26 0
DWIDTH 18 0
BBX 15 25 2 0
BITMAP
01C0
0180
0300
0600
0000
FFFC
FFFC
E000
E000
E000
E000
E000
E000
E000
FFFC
FFFC
E000
E000
E000
E000
E000
E000
E000
FFFE
FFFE
ENDCHAR
STARTCHAR char202
ENCODING 202
SWIDTH 26 0
DWIDTH 18 0
BBX 15 25 2 0
BITMAP
0380
03C0
06C0
0C60
0000
FFFC
FFFC
E000
E000
E000
E000
E000
E000
E000
FFFC
FFFC
E000
E000
E000
E000
E000
E000
E000
FFFE
FFFE
ENDCHAR
STARTCHAR char203
ENCODING 203
SWIDTH 26 0
DWIDTH 18 0
BBX 15 23 2 0
BITMAP
0E60
0E60
0000
FFFC
FFFC
E000
E000
E000
E000
E000
E000
E000
FFFC
FFFC
E000
E000
E000
E000
E000
E000
E000
FFFE
FFFE
ENDCHAR
STARTCHAR char204
ENCODING 204
SWIDTH 26 0
DWIDTH 8 0
BBX 5 25 0 0
BITMAP
E0
70
30
18
00
38
38
38
38
38
38
38
38
38
38
38
38
38
38
38
38
38
38
38
38
ENDCHAR
STARTCHAR char205
ENCODING 205
SWIDTH 26 0
DWIDTH 8 0
BBX 5 25 2 0
BITMAP
38
70
E0
C0
00
60
60
60
60
60
60
60
60
60
60
60
60
60
60
60
60
60
60
60
60
ENDCHAR
STARTCHAR char206
ENCODING 206
SWIDTH 26 0
DWIDTH 8 0
BBX 7 25 0 0
BITMAP
38
3C
66
C6
00
18
18
18
18
18
18
18
18
18
18
18
18
18
18
18
18
18
18
18
18
ENDCHAR
STARTCHAR char207
ENCODING 207
SWIDTH 26 0
DWIDTH 8 0
BBX 7 23 0 0
BITMAP
E6
E6
00
18
18
18
18
18
18
18
18
18
18
18
18
18
18
18
18
18
18
18
18
ENDCHAR
STARTCHAR char208
ENCODING 208
SWIDTH 33 0
DWIDTH 20 0
BBX 18 20 0 0
BITMAP
3FF800
3FFE00
380F00
380780
380380
380180
3801C0
3801C0
3801C0
FFC1C0
FFC1C0
3801C0
3801C0
3801C0
3801C0
380380
380380
380F00
3FFE00
3FF800
ENDCHAR
STARTCHAR char209
ENCODING 209
SWIDTH 33 0
DWIDTH 20 0
BBX 15 25 2 0
BITMAP
0010
0710
0FF0
18E0
0000
E006
F006
F806
F806
FC06
EC06
EE06
E706
E706
E386
E1C6
E1C6
E0E6
E0E6
E076
E03E
E03E
E01E
E00E
E00E
ENDCHAR
STARTCHAR char210
ENCODING 210
SWIDTH 2 0
DWIDTH 21 0
BBX 19 25 1 0
BITMAP
038000
01C000
00E000
006000
000000
03F800
0FFE00
1E0F00
380380
7001C0
7001C0
6000E0
E000E0
E000E0
E000E0
E000E0
E000E0
E000E0
E000C0
7001C0
7001C0
380380
1E0F00
0FFE00
03F800
ENDCHAR
STARTCHAR char211
ENCODING 211
SWIDTH 2 0
DWIDTH 21 0
BBX 19 25 1 0
BITMAP
007000
00E000
00C000
018000
000000
03F800
0FFE00
1E0F00
380380
7001C0
7001C0
6000E0
E000E0
E000E0
E000E0
E000E0
E000E0
E000E0
E000C0
7001C0
7001C0
380380
1E0F00
0FFE00
03F800
ENDCHAR
STARTCHAR char212
ENCODING 212
SWIDTH 2 0
DWIDTH 21 0
BBX 19 25 1 0
BITMAP
00E000
01B000
019800
031C00
000000
03F800
0FFE00
1E0F00
380380
7001C0
7001C0
6000E0
E000E0
E000E0
E000E0
E000E0
E000E0
E000E0
E000C0
7001C0
7001C0
380380
1E0F00
0FFE00
03F800
ENDCHAR
STARTCHAR char213
ENCODING 213
SWIDTH 2 0
DWIDTH 21 0
BBX 19 26 1 0
BITMAP
000400
03C400
03FC00
067800
000000
000000
03F800
0FFE00
1E0F00
380380
7001C0
7001C0
6000E0
E000E0
E000E0
E000E0
E000E0
E000E0
E000E0
E000C0
7001C0
7001C0
380380
1E0F00
0FFE00
03F800
ENDCHAR
STARTCHAR char214
ENCODING 214
SWIDTH 2 0
DWIDTH 21 0
BBX 19 24 1 0
BITMAP
039800
039800
000000
000000
03F800
0FFE00
1E0F00
380380
7001C0
7001C0
6000E0
E000E0
E000E0
E000E0
E000E0
E000E0
E000E0
E000C0
7001C0
7001C0
380380
1E0F00
0FFE00
03F800
ENDCHAR
STARTCHAR char215
ENCODING 215
SWIDTH 19 0
DWIDTH 16 0
BBX 12 12 2 0
BITMAP
C030
E070
70E0
39C0
1F80
0F00
0F00
1F80
39C0
70E0
E070
C030
ENDCHAR
STARTCHAR char216
ENCODING 216
SWIDTH 2 0
DWIDTH 21 0
BBX 19 20 1 0
BITMAP
03F860
0FFEC0
1E0F80
380380
7003C0
7005C0
6008E0
E018E0
E030E0
E060E0
E0C0E0
E180E0
E300E0
E600C0
7401C0
780180
380380
3E0F00
4FFE00
83F800
ENDCHAR
STARTCHAR char217
ENCODING 217
SWIDTH 33 0
DWIDTH 20 0
BBX 16 25 2 0
BITMAP
0E00
0700
0380
0180
0000
E007
E007
E007
E007
E007
E007
E007
E007
E007
E007
E007
E006
E006
E006
6006
700E
700E
383C
1FF8
07E0
ENDCHAR
STARTCHAR char218
ENCODING 218
SWIDTH 33 0
DWIDTH 20 0
BBX 16 25 2 0
BITMAP
00E0
01C0
0180
0300
0000
E007
E007
E007
E007
E007
E007
E007
E007
E007
E007
E007
E006
E006
E006
6006
700E
700E
383C
1FF8
07E0
ENDCHAR
STARTCHAR char219
ENCODING 219
SWIDTH 33 0
DWIDTH 20 0
BBX 16 25 2 0
BITMAP
0180
03C0
0660
0670
0000
E007
E007
E007
E007
E007
E007
E007
E007
E007
E007
E007
E006
E006
E006
6006
700E
700E
383C
1FF8
07E0
ENDCHAR
STARTCHAR char220
ENCODING 220
SWIDTH 33 0
DWIDTH 20 0
BBX 16 23 2 0
BITMAP
0670
0670
0000
E007
E007
E007
E007
E007
E007
E007
E007
E007
E007
E007
E006
E006
E006
6006
700E
700E
383C
1FF8
07E0
ENDCHAR
STARTCHAR char221
ENCODING 221
SWIDTH 26 0
DWIDTH 18 0
BBX 17 25 1 0
BITMAP
00E000
01C000
018000
030000
000000
E00780
E00700
700E00
380E00
381C00
1C1800
0C3800
0E7000
077000
07E000
03C000
01C000
01C000
01C000
01C000
01C000
01C000
01C000
01C000
01C000
ENDCHAR
STARTCHAR char222
ENCODING 222
SWIDTH 26 0
DWIDTH 18 0
BBX 14 19 2 0
BITMAP
C000
C000
C000
FFE0
FFF8
C038
C01C
C01C
C01C
C01C
C01C
C038
FFF0
FFE0
C000
C000
C000
C000
C000
ENDCHAR
STARTCHAR char223
ENCODING 223
SWIDTH 23 0
DWIDTH 17 0
BBX 12 20 3 0
BITMAP
3F00
7F80
E1C0
C0C0
C0E0
C0E0
C0C0
C1C0
CF80
CFC0
C1E0
C060
C060
C070
C070
C060
C0E0
C1E0
CFC0
CF00
ENDCHAR
STARTCHAR char224
ENCODING 224
SWIDTH 16 0
DWIDTH 15 0
BBX 13 20 1 0
BITMAP
1C00
0E00
0600
0300
0000
0000
1F80
3FE0
7070
6070
0030
00F0
3FF0
7E70
E070
E070
E070
E0F0
7FB8
3E38
ENDCHAR
STARTCHAR char225
ENCODING 225
SWIDTH 16 0
DWIDTH 15 0
BBX 13 20 1 0
BITMAP
0380
0300
0600
0C00
0000
0000
1F80
3FE0
7070
6070
0030
00F0
3FF0
7E70
E070
E070
E070
E0F0
7FB8
3E38
ENDCHAR
STARTCHAR char226
ENCODING 226
SWIDTH 16 0
DWIDTH 15 0
BBX 13 20 1 0
BITMAP
0700
0F80
0DC0
18C0
0000
0000
1F80
3FE0
7070
6070
0030
00F0
3FF0
7E70
E070
E070
E070
E0F0
7FB8
3E38
ENDCHAR
STARTCHAR char227
ENCODING 227
SWIDTH 16 0
DWIDTH 15 0
BBX 13 20 1 0
BITMAP
1E20
1FE0
33C0
0000
0000
0000
1F80
3FE0
7070
6070
0030
00F0
3FF0
7E70
E070
E070
E070
E0F0
7FB8
3E38
ENDCHAR
STARTCHAR char228
ENCODING 228
SWIDTH 16 0
DWIDTH 15 0
BBX 13 18 1 0
BITMAP
1CC0
1CC0
0000
0000
1F80
3FE0
7070
6070
0030
00F0
3FF0
7E70
E070
E070
E070
E0F0
7FB8
3E38
ENDCHAR
STARTCHAR char229
ENCODING 229
SWIDTH 16 0
DWIDTH 15 0
BBX 13 21 1 0
BITMAP
0700
0880
0880
0880
0700
0000
0000
1F80
3FE0
7070
6070
0030
00F0
3FF0
7E70
E070
E070
E070
E0F0
7FB8
3E38
ENDCHAR
STARTCHAR char230
ENCODING 230
SWIDTH 12 0
DWIDTH 24 0
BBX 22 14 1 0
BITMAP
1F87C0
3FEFF0
70FC78
607018
60701C
00F01C
1FFFFC
7F7FFC
E07000
E07000
C0701C
E1F838
7F9FF0
3E07C0
ENDCHAR
STARTCHAR char231
ENCODING 231
SWIDTH 13 0
DWIDTH 14 0
BBX 12 20 1 -6
BITMAP
0F80
3FC0
70E0
6070
E070
C000
C000
C000
C000
E070
E060
70E0
3FC0
1F80
0400
0E00
0F00
0300
0300
1E00
ENDCHAR
STARTCHAR char232
ENCODING 232
SWIDTH 16 0
DWIDTH 15 0
BBX 13 20 1 0
BITMAP
1C00
0E00
0600
0300
0000
0000
0F80
3FE0
7870
6030
E038
E038
FFF8
FFF8
E000
E000
6038
7070
3FE0
0F80
ENDCHAR
STARTCHAR char233
ENCODING 233
SWIDTH 16 0
DWIDTH 15 0
BBX 13 20 1 0
BITMAP
0380
0300
0600
0C00
0000
0000
0F80
3FE0
7870
6030
E038
E038
FFF8
FFF8
E000
E000
6038
7070
3FE0
0F80
ENDCHAR
STARTCHAR char234
ENCODING 234
SWIDTH 16 0
DWIDTH 15 0
BBX 13 20 1 0
BITMAP
0700
0780
0DC0
18C0
0000
0000
0F80
3FE0
7870
6030
E038
E038
FFF8
FFF8
E000
E000
6038
7070
3FE0
0F80
ENDCHAR
STARTCHAR char235
ENCODING 235
SWIDTH 16 0
DWIDTH 15 0
BBX 13 18 1 0
BITMAP
1CC0
1CC0
0000
0000
0F80
3FE0
7870
6030
E038
E038
FFF8
FFF8
E000
E000
E038
7070
3FE0
0F80
ENDCHAR
STARTCHAR char236
ENCODING 236
SWIDTH 26 0
DWIDTH 8 0
BBX 4 20 1 0
BITMAP
C0
E0
70
30
00
00
70
70
70
70
70
70
70
70
70
70
70
70
70
70
ENDCHAR
STARTCHAR char237
ENCODING 237
SWIDTH 26 0
DWIDTH 8 0
BBX 4 20 2 0
BITMAP
70
60
C0
C0
00
00
E0
E0
E0
E0
E0
E0
E0
E0
E0
E0
E0
E0
E0
E0
ENDCHAR
STARTCHAR char238
ENCODING 238
SWIDTH 26 0
DWIDTH 8 0
BBX 8 20 0 0
BITMAP
3C
3C
66
C7
00
00
38
38
38
38
38
38
38
38
38
38
38
38
38
38
ENDCHAR
STARTCHAR char239
ENCODING 239
SWIDTH 26 0
DWIDTH 8 0
BBX 7 18 0 0
BITMAP
E6
E6
00
00
38
38
38
38
38
38
38
38
38
38
38
38
38
38
ENDCHAR
STARTCHAR char240
ENCODING 240
SWIDTH 16 0
DWIDTH 15 0
BBX 13 21 1 0
BITMAP
1100
3F00
0E00
1F00
3380
01C0
00C0
1FE0
3FF0
70F0
E030
E038
C038
C038
C038
C038
E038
E070
70F0
3FE0
1F80
ENDCHAR
STARTCHAR char241
ENCODING 241
SWIDTH 16 0
DWIDTH 15 0
BBX 11 20 2 0
BITMAP
1C60
3FC0
2380
0000
0000
0000
CF80
FFC0
F0E0
E060
C060
C060
C060
C060
C060
C060
C060
C060
C060
C060
ENDCHAR
STARTCHAR char242
ENCODING 242
SWIDTH 16 0
DWIDTH 15 0
BBX 13 20 1 0
BITMAP
1C00
0C00
0600
0600
0000
0000
0F80
3FE0
7070
6030
E038
C038
C038
C038
C038
E038
E070
70F0
3FE0
1F80
ENDCHAR
STARTCHAR char243
ENCODING 243
SWIDTH 16 0
DWIDTH 15 0
BBX 13 20 1 0
BITMAP
0380
0700
0600
0C00
0000
0000
0F80
3FE0
7070
6030
E038
C038
C038
C038
C038
E038
E070
70F0
3FE0
1F80
ENDCHAR
STARTCHAR char244
ENCODING 244
SWIDTH 16 0
DWIDTH 15 0
BBX 13 20 1 0
BITMAP
0700
0F80
0D80
18C0
0000
0000
0F80
3FE0
7070
6030
E038
C038
C038
C038
C038
E038
E070
70F0
3FE0
1F80
ENDCHAR
STARTCHAR char245
ENCODING 245
SWIDTH 16 0
DWIDTH 15 0
BBX 13 20 1 0
BITMAP
1E20
3FE0
33C0
0000
0000
0000
0F80
3FE0
7070
6030
E038
C038
C038
C038
C038
E038
E070
70F0
3FE0
1F80
ENDCHAR
STARTCHAR char246
ENCODING 246
SWIDTH 16 0
DWIDTH 15 0
BBX 13 18 1 0
BITMAP
1DC0
1DC0
0000
0000
0F80
3FE0
7070
6030
E038
C038
C038
C038
C038
E038
E070
70F0
3FE0
1F80
ENDCHAR
STARTCHAR char247
ENCODING 247
SWIDTH 16 0
DWIDTH 15 0
BBX 14 13 1 0
BITMAP
0380
0380
0000
0000
0000
FFFC
FFFC
0000
0000
0000
0000
0380
0380
ENDCHAR
STARTCHAR char248
ENCODING 248
SWIDTH 23 0
DWIDTH 17 0
BBX 14 14 1 0
BITMAP
0FC4
1FE8
3870
7038
6058
609C
611C
621C
641C
6818
7038
3870
7FE0
CFC0
ENDCHAR
STARTCHAR char249
ENCODING 249
SWIDTH 16 0
DWIDTH 15 0
BBX 11 20 2 0
BITMAP
3800
1C00
0C00
0600
0000
0000
C060
C060
C060
C060
C060
C060
C060
C060
C060
C0E0
C0E0
E1E0
7F60
3E60
ENDCHAR
STARTCHAR char250
ENCODING 250
SWIDTH 16 0
DWIDTH 15 0
BBX 11 20 2 0
BITMAP
0700
0E00
0C00
1800
0000
0000
C060
C060
C060
C060
C060
C060
C060
C060
C060
C0E0
C0E0
E1E0
7F60
3E60
ENDCHAR
STARTCHAR char251
ENCODING 251
SWIDTH 16 0
DWIDTH 15 0
BBX 11 20 2 0
BITMAP
0E00
1B00
1B80
3180
0000
0000
C060
C060
C060
C060
C060
C060
C060
C060
C060
C0E0
C0E0
E1E0
7F60
3E60
ENDCHAR
STARTCHAR char252
ENCODING 252
SWIDTH 16 0
DWIDTH 15 0
BBX 11 18 2 0
BITMAP
3B80
3B80
0000
0000
C060
C060
C060
C060
C060
C060
C060
C060
C060
C0E0
C0E0
E1E0
7F60
3E60
ENDCHAR
STARTCHAR char253
ENCODING 253
SWIDTH 13 0
DWIDTH 14 0
BBX 13 26 0 -6
BITMAP
01C0
0380
0300
0600
0000
0000
E038
6038
7030
3070
3070
3860
18E0
18E0
1CC0
0DC0
0D80
0F80
0780
0700
0700
0600
0600
0E00
3C00
3800
ENDCHAR
STARTCHAR char254
ENCODING 254
SWIDTH 16 0
DWIDTH 15 0
BBX 12 25 2 -6
BITMAP
C000
C000
C000
C000
C000
CF80
FFC0
F0E0
E060
C070
C070
C030
C030
C030
C070
C070
E060
F0E0
FFC0
CF00
C000
C000
C000
C000
C000
ENDCHAR
STARTCHAR char255
ENCODING 255
SWIDTH 13 0
DWIDTH 14 0
BBX 13 24 0 -6
BITMAP
1CC0
1CC0
0000
0000
E038
6038
7030
3070
3070
3860
18E0
18E0
1CC0
0DC0
0D80
0F80
0780
0700
0700
0600
0600
0E00
3C00
3800
ENDCHAR
STARTCHAR char338
ENCODING 338
SWIDTH 22 0
DWIDTH 27 0
BBX 25 20 1 0
BITMAP
07E7FF80
1FFFFF80
3C1F0000
380F0000
70070000
60070000
E0070000
E0070000
E0070000
E007FF80
E007FF80
E0070000
E0070000
E0070000
60070000
70070000
700F0000
3C1F0000
1FFFFF80
07E7FF80
ENDCHAR
STARTCHAR char339
ENCODING 339
SWIDTH 15 0
DWIDTH 25 0
BBX 23 14 1 0
BITMAP
0F81F0
3FE7F8
787E1C
603C0E
E03806
E01806
C01FFE
C01FFE
C01800
E03800
E03C0E
78EE1C
3FE7FC
0F83F0
ENDCHAR
STARTCHAR char376
ENCODING 376
SWIDTH 26 0
DWIDTH 18 0
BBX 17 23 1 0
BITMAP
067000
067000
000000
E00780
E00700
700E00
380E00
381C00
1C1800
0C3800
0E7000
077000
07E000
03C000
01C000
01C000
01C000
01C000
01C000
01C000
01C000
01C000
01C000
ENDCHAR
STARTCHAR char710
ENCODING 710
SWIDTH 30 0
DWIDTH 9 0
BBX 7 4 1 16
BITMAP
38
6C
6C
C6
ENDCHAR
STARTCHAR char732
ENCODING 732
SWIDTH 30 0
DWIDTH 9 0
BBX 9 4 0 16
BITMAP
7080
F980
8F00
0700
ENDCHAR
STARTCHAR char8192
ENCODING 8192
SWIDTH 9 0
DWIDTH 13 0
BBX 0 0 0 0
BITMAP
ENDCHAR
STARTCHAR char8193
ENCODING 8193
SWIDTH 19 0
DWIDTH 26 0
BBX 0 0 0 0
BITMAP
ENDCHAR
STARTCHAR char8194
ENCODING 8194
SWIDTH 9 0
DWIDTH 13 0
BBX 0 0 0 0
BITMAP
ENDCHAR
STARTCHAR char8195
ENCODING 8195
SWIDTH 19 0
DWIDTH 26 0
BBX 0 0 0 0
BITMAP
ENDCHAR
STARTCHAR char8196
ENCODING 8196
SWIDTH 30 0
DWIDTH 9 0
BBX 0 0 0 0
BITMAP
ENDCHAR
STARTCHAR char8197
ENCODING 8197
SWIDTH 20 0
DWIDTH 6 0
BBX 0 0 0 0
BITMAP
ENDCHAR
STARTCHAR char8198
ENCODING 8198
SWIDTH 13 0
DWIDTH 4 0
BBX 0 0 0 0
BITMAP
ENDCHAR
STARTCHAR char8199
ENCODING 8199
SWIDTH 13 0
DWIDTH 4 0
BBX 0 0 0 0
BITMAP
ENDCHAR
STARTCHAR char8200
ENCODING 8200
SWIDTH 10 0
DWIDTH 3 0
BBX 0 0 0 0
BITMAP
ENDCHAR
STARTCHAR char8201
ENCODING 8201
SWIDTH 16 0
DWIDTH 5 0
BBX 0 0 0 0
BITMAP
ENDCHAR
STARTCHAR char8202
ENCODING 8202
SWIDTH 3 0
DWIDTH 1 0
BBX 0 0 0 0
BITMAP
ENDCHAR
STARTCHAR char8208
ENCODING 8208
SWIDTH 30 0
DWIDTH 9 0
BBX 7 3 1 6
BITMAP
FE
FE
FE
ENDCHAR
STARTCHAR char8209
ENCODING 8209
SWIDTH 30 0
DWIDTH 9 0
BBX 7 3 1 6
BITMAP
FE
FE
FE
ENDCHAR
STARTCHAR char8210
ENCODING 8210
SWIDTH 30 0
DWIDTH 9 0
BBX 7 3 1 6
BITMAP
FE
FE
FE
ENDCHAR
STARTCHAR char8211
ENCODING 8211
SWIDTH 16 0
DWIDTH 15 0
BBX 15 2 0 6
BITMAP
FFFE
FFFE
ENDCHAR
STARTCHAR char8212
ENCODING 8212
SWIDTH 22 0
DWIDTH 27 0
BBX 21 2 3 6
BITMAP
FFFFF8
FFFFF8
ENDCHAR
STARTCHAR char8216
ENCODING 8216
SWIDTH 20 0
DWIDTH 6 0
BBX 3 7 2 13
BITMAP
20
60
80
80
E0
E0
E0
ENDCHAR
STARTCHAR char8217
ENCODING 8217
SWIDTH 20 0
DWIDTH 6 0
BBX 3 6 2 12
BITMAP
E0
E0
E0
20
60
C0
ENDCHAR
STARTCHAR char8218
ENCODING 8218
SWIDTH 20 0
DWIDTH 6 0
BBX 3 7 2 -4
BITMAP
E0
E0
E0
20
60
40
C0
ENDCHAR
STARTCHAR char8220
ENCODING 8220
SWIDTH 30 0
DWIDTH 9 0
BBX 7 6 1 14
BITMAP
66
C4
84
EE
EE
EE
ENDCHAR
STARTCHAR char8221
ENCODING 8221
SWIDTH 30 0
DWIDTH 9 0
BBX 7 6 1 12
BITMAP
EE
EE
EE
62
46
CC
ENDCHAR
STARTCHAR char8222
ENCODING 8222
SWIDTH 30 0
DWIDTH 9 0
BBX 7 7 1 -4
BITMAP
EE
EE
EE
62
62
46
8C
ENDCHAR
STARTCHAR char8226
ENCODING 8226
SWIDTH 30 0
DWIDTH 9 0
BBX 6 6 2 7
BITMAP
20
78
FC
FC
FC
78
ENDCHAR
STARTCHAR char8230
ENCODING 8230
SWIDTH 22 0
DWIDTH 27 0
BBX 21 3 3 0
BITMAP
E07038
E07038
E07038
ENDCHAR
STARTCHAR char8239
ENCODING 8239
SWIDTH 16 0
DWIDTH 5 0
BBX 0 0 0 0
BITMAP
ENDCHAR
STARTCHAR char8249
ENCODING 8249
SWIDTH 30 0
DWIDTH 9 0
BBX 5 9 2 3
BITMAP
08
18
78
E0
C0
E0
70
38
08
ENDCHAR
STARTCHAR char8250
ENCODING 8250
SWIDTH 30 0
DWIDTH 9 0
BBX 5 9 2 3
BITMAP
80
C0
E0
38
18
38
70
C0
80
ENDCHAR
STARTCHAR char8287
ENCODING 8287
SWIDTH 20 0
DWIDTH 6 0
BBX 0 0 0 0
BITMAP
ENDCHAR
STARTCHAR char8364
ENCODING 8364
SWIDTH 33 0
DWIDTH 20 0
BBX 18 21 1 -1
BITMAP
007800
01FE00
03CF00
070380
0E0180
0C01C0
0C0000
7FF800
FFF800
1C0000
1C0000
7FF800
FFF800
0C00C0
0C01C0
0E0180
060380
070700
03FF00
01FC00
002000
ENDCHAR
STARTCHAR char8482
ENCODING 8482
SWIDTH 22 0
DWIDTH 27 0
BBX 20 9 3 10
BITMAP
FF3870
183870
183CF0
183CF0
1834B0
1837B0
1837B0
183330
183330
ENDCHAR
STARTCHAR char64257
ENCODING 64257
SWIDTH 13 0
DWIDTH 14 0
BBX 12 20 0 0
BITMAP
0600
1E70
3E70
3800
3800
3800
FE70
FE70
3870
3870
3870
3870
3870
3870
3870
3870
3870
3870
3870
3870
ENDCHAR
STARTCHAR char64258
ENCODING 64258
SWIDTH 13 0
DWIDTH 14 0
BBX 12 20 0 0
BITMAP
0600
1E70
3E70
3870
3870
3870
FE70
FE70
3870
3870
3870
3870
3870
3870
3870
3870
3870
3870
3870
3870
ENDCHAR
ENDFONT
